#!OML:ASF Y:\EmotionMaleHayes\Project 1\Capture day 1\Session 1\Male1.ASF
:FULLY-SPECIFIED
:DEGREES
1324
root 36.6225 16.8741 2.40559 1006.58 80.0069 1012.37
lowerback 3.42848 2.95113 0.386973
upperback 3.6621 4.00568 1.92783
thorax 1.73033 2.02534 1.68555
lowerneck -19.8287 -2.43672 1.54046
upperneck 36.7012 -7.36352 11.2928
head 17.3543 -0.602875 3.52678
rclavicle -3.90612e-014 -2.62396e-014
rhumerus -20.737 14.9744 -86.6314
rradius 43.2882
rwrist -10.926
rhand -10.0702 -34.8446
rfingers 7.12502
rthumb 15.9161 -64.2106
lclavicle -3.90612e-014 -2.62396e-014
lhumerus -28.2668 -2.76262 69.0926
lradius 25.4809
lwrist -9.66029
lhand -21.5266 -25.2368
lfingers 7.12502
lthumb 4.86591 4.68731
rfemur 11.927 -13.9512 25.513
rtibia 9.34512
rfoot -18.9402 -2.40016
rtoes 10.7991
lfemur 3.20164 6.92097 3.88866
ltibia 51.9005
lfoot -7.84126 23.0671
ltoes 31.7835
1325
root 36.6655 16.8852 2.42719 1006.07 79.6697 1011.95
lowerback 3.73275 3.03099 0.726535
upperback 3.35613 4.12387 2.02418
thorax 1.25913 2.08996 1.56246
lowerneck -19.9207 -2.62671 1.58346
upperneck 37.1657 -7.69327 11.2872
head 17.6659 -0.689619 3.49412
rclavicle -2.19657e-014 0
rhumerus -20.9638 16.1374 -87.2071
rradius 44.2075
rwrist -9.61348
rhand -10.8521 -33.0943
rfingers 7.12502
rthumb 15.163 -62.5188
lclavicle -2.19657e-014 0
lhumerus -28.5726 -3.31838 68.8844
lradius 26.1076
lwrist -8.42995
lhand -21.6273 -25.0316
lfingers 7.12502
lthumb 4.7687 4.89472
rfemur 11.9373 -12.7988 26.4951
rtibia 9.34377
rfoot -19.1651 -3.61264
rtoes 10.3836
lfemur 2.03601 7.21389 4.45295
ltibia 53.4019
lfoot -7.32885 21.1876
ltoes 30.5976
1326
root 36.7394 16.8889 2.43865 1005.68 79.735 1011.56
lowerback 3.51288 3.09888 0.854077
upperback 3.14671 4.21034 1.96968
thorax 1.17753 2.13309 1.4388
lowerneck -19.4256 -2.60695 1.38129
upperneck 36.8766 -7.74391 11.9572
head 17.45 -0.660195 3.81424
rclavicle -3.57315e-014 2.22639e-014
rhumerus -20.977 17.4255 -87.7376
rradius 44.8837
rwrist -8.37726
rhand -10.9815 -32.9529
rfingers 7.12502
rthumb 15.0383 -62.3867
lclavicle -3.57315e-014 2.22639e-014
lhumerus -28.7194 -3.72914 68.692
lradius 26.6218
lwrist -7.35105
lhand -21.6449 -24.7689
lfingers 7.12502
lthumb 4.75165 5.1578
rfemur 12.2391 -12.5144 26.5552
rtibia 9.20164
rfoot -19.3841 -3.90011
rtoes 10.3866
lfemur 1.03526 7.43581 4.4144
ltibia 54.5068
lfoot -7.08792 19.3475
ltoes 28.8696
1327
root 36.8332 16.8845 2.43932 1005.21 80.0786 1011.04
lowerback 2.99867 3.15892 0.906274
upperback 2.98039 4.27686 1.8022
thorax 1.30859 2.16475 1.26272
lowerneck -19.5183 -2.86089 1.24806
upperneck 37.103 -8.18188 12.1849
head 17.6734 -0.79674 3.88489
rclavicle 2.88735e-014 -1.90833e-014
rhumerus -21.1102 18.651 -88.2214
rradius 45.7953
rwrist -7.22695
rhand -11.1319 -32.9405
rfingers 7.12502
rthumb 14.8934 -62.3851
lclavicle 2.88735e-014 -1.90833e-014
lhumerus -28.8776 -3.93476 68.4863
lradius 27.1929
lwrist -6.60191
lhand -21.5826 -24.5476
lfingers 7.12502
lthumb 4.81185 5.37775
rfemur 12.7132 -12.975 25.921
rtibia 9.0876
rfoot -19.5861 -3.56436
rtoes 10.026
lfemur 0.167998 7.56972 3.94629
ltibia 55.2822
lfoot -6.44482 17.6539
ltoes 26.9484
1328
root 36.9291 16.8779 2.43535 1004.32 80.4044 1010.14
lowerback 2.55797 3.1972 1.00288
upperback 2.79959 4.3173 1.66314
thorax 1.38596 2.18424 1.08725
lowerneck -19.2738 -2.89669 1.30233
upperneck 37.188 -8.26486 12.3118
head 17.6768 -0.794034 3.92933
rclavicle -1.03617e-014 -2.14687e-014
rhumerus -21.3906 19.5984 -88.6691
rradius 46.8317
rwrist -5.62367
rhand -11.3078 -32.444
rfingers 7.12502
rthumb 14.724 -61.9011
lclavicle -1.03617e-014 -2.14687e-014
lhumerus -29.1392 -4.09771 68.3395
lradius 27.6775
lwrist -5.76859
lhand -21.5975 -24.607
lfingers 7.12502
lthumb 4.79738 5.31869
rfemur 13.2014 -13.6749 25.2398
rtibia 9.15593
rfoot -19.8476 -3.31139
rtoes 8.1085
lfemur -0.635352 7.59589 3.46692
ltibia 55.927
lfoot -6.15801 16.1293
ltoes 26.0279
1329
root 37.0284 16.8706 2.431 1003.57 80.704 1009.42
lowerback 2.06924 3.20654 1.00991
upperback 2.68178 4.31733 1.57115
thorax 1.54559 2.18239 1.0159
lowerneck -19.1098 -2.87084 1.50973
upperneck 37.2825 -8.2466 12.2265
head 17.6689 -0.759242 3.86453
rclavicle 5.6927e-014 -9.54166e-015
rhumerus -21.5711 20.4971 -89.0929
rradius 47.749
rwrist -3.61463
rhand -11.5086 -31.6731
rfingers 7.12502
rthumb 14.5305 -61.1442
lclavicle 5.6927e-014 -9.54166e-015
lhumerus -29.4137 -4.27814 68.2648
lradius 28.1793
lwrist -4.56443
lhand -21.6322 -24.462
lfingers 7.12502
lthumb 4.76395 5.4644
rfemur 13.7932 -13.8362 24.6968
rtibia 8.89855
rfoot -20.091 -2.87988
rtoes 10.4977
lfemur -1.35043 7.59396 2.99587
ltibia 56.442
lfoot -6.35345 14.9262
ltoes 25.1695
1330
root 37.127 16.8619 2.42362 1002.77 81.0308 1008.58
lowerback 1.52098 3.19931 0.986316
upperback 2.5921 4.2944 1.47428
thorax 1.76603 2.16874 0.961578
lowerneck -19.2191 -2.92226 1.63979
upperneck 37.502 -8.36297 12.1425
head 17.8217 -0.775688 3.80106
rclavicle -5.60324e-015 -1.51076e-014
rhumerus -21.6987 21.5866 -89.4849
rradius 48.6745
rwrist -1.86429
rhand -12.0532 -30.8804
rfingers 7.12502
rthumb 14.0058 -60.3885
lclavicle -5.60324e-015 -1.51076e-014
lhumerus -29.587 -4.40354 68.2453
lradius 28.6264
lwrist -3.32842
lhand -21.8195 -24.2606
lfingers 7.12502
lthumb 4.58304 5.66984
rfemur 14.3486 -14.6034 23.8995
rtibia 8.90088
rfoot -20.324 -2.18614
rtoes 10.2337
lfemur -2.1542 7.63121 2.47161
ltibia 56.8835
lfoot -6.47826 14.2539
ltoes 24.2076
